<svg width="28" height="28" viewBox="0 0 28 28" fill="none" xmlns="http://www.w3.org/2000/svg">
<path d="M24.3117 22.3142L21.0855 18.0676C20.4425 17.2249 19.2083 17.0808 18.3345 17.748L16.199 19.3779C16.0891 19.2962 15.9754 19.211 15.856 19.1208C14.7577 18.3006 13.2547 17.1767 11.7766 15.2299C10.2939 13.2787 9.61201 11.5251 9.11319 10.2448C9.06062 10.1092 9.01036 9.9785 8.9601 9.85405L10.3931 8.7618L11.0979 8.22311C11.9729 7.5549 12.1611 6.32416 11.5201 5.47948L8.29397 1.2325C7.65284 0.388866 6.41806 0.244722 5.54298 0.912933L4.34752 1.83097L4.37239 1.86346C3.95861 2.26683 3.59344 2.74722 3.29816 3.2786C3.02369 3.7853 2.82883 4.2779 2.70215 4.78079C1.65509 8.80926 3.01573 12.8046 7.3956 18.5691C13.45 26.5368 19.1664 26.7704 19.4134 26.7775C19.9523 26.7857 20.4778 26.7275 21.0216 26.5963C21.6059 26.4541 22.1646 26.2293 22.6621 25.9374L22.6823 25.961L23.8896 25.0593C24.7631 24.391 24.9522 23.16 24.3117 22.3142Z" fill="#828282"/>
</svg>
