<svg width="40" height="40" viewBox="0 0 40 40" fill="none" xmlns="http://www.w3.org/2000/svg">
<path d="M17.4814 3.89195C18.6636 2.06514 21.3364 2.06514 22.5186 3.89195L23.0021 4.63899C23.7736 5.8312 25.2753 6.31915 26.6003 5.80812L27.4305 5.48791C29.4607 4.70486 31.623 6.27593 31.5057 8.44873L31.4577 9.33725C31.3811 10.7553 32.3092 12.0327 33.6815 12.3981L34.5414 12.627C36.6441 13.1868 37.47 15.7288 36.098 17.4177L35.5369 18.1083C34.6414 19.2105 34.6414 20.7895 35.5369 21.8917L36.098 22.5823C37.47 24.2712 36.6441 26.8132 34.5414 27.373L33.6815 27.6019C32.3092 27.9673 31.3811 29.2447 31.4577 30.6628L31.5057 31.5513C31.623 33.7241 29.4607 35.2951 27.4305 34.5121L26.6003 34.1919C25.2753 33.6809 23.7736 34.1688 23.0021 35.361L22.5186 36.108C21.3364 37.9349 18.6636 37.9349 17.4814 36.108L16.9979 35.361C16.2264 34.1688 14.7247 33.6809 13.3997 34.1919L12.5695 34.5121C10.5393 35.2951 8.37696 33.7241 8.49432 31.5513L8.54231 30.6628C8.6189 29.2447 7.69077 27.9673 6.3185 27.6019L5.45863 27.373C3.35591 26.8132 2.52996 24.2712 3.90204 22.5823L4.46312 21.8917C5.35857 20.7895 5.35857 19.2105 4.46312 18.1083L3.90204 17.4177C2.52996 15.7288 3.35591 13.1868 5.45863 12.627L6.3185 12.3981C7.69077 12.0327 8.6189 10.7553 8.54231 9.33725L8.49432 8.44872C8.37696 6.27593 10.5393 4.70486 12.5695 5.48791L13.3997 5.80812C14.7247 6.31915 16.2264 5.8312 16.9979 4.63899L17.4814 3.89195Z" fill="#A60101"/>
<path d="M24 14.6665L16 25.3332" stroke="white" stroke-linecap="round" stroke-linejoin="round"/>
<circle cx="15.9997" cy="17.3332" r="2.16667" stroke="white"/>
<circle cx="23.9997" cy="22.6667" r="2.16667" stroke="white"/>
</svg>
