<svg width="16" height="19" viewBox="0 0 16 19" fill="none" xmlns="http://www.w3.org/2000/svg">
<path fill-rule="evenodd" clip-rule="evenodd" d="M7.35982 13.2196C4.12353 13.2196 1.5 10.5961 1.5 7.35982C1.5 4.12353 4.12353 1.5 7.35982 1.5C10.5961 1.5 13.2196 4.12353 13.2196 7.35982C13.2196 9.14161 12.4262 10.7365 11.1682 11.8135C10.1432 12.6911 8.81513 13.2196 7.35982 13.2196ZM14.7196 7.35982C14.7196 9.59816 13.7204 11.6031 12.1437 12.953C12.0884 13.0003 12.0324 13.0468 11.9758 13.0925L15.3299 17.7884C15.5707 18.1254 15.4926 18.5939 15.1556 18.8346C14.8185 19.0754 14.3501 18.9973 14.1093 18.6602L10.7171 13.9111C9.71046 14.4279 8.56921 14.7196 7.35982 14.7196C3.2951 14.7196 0 11.4245 0 7.35982C0 3.2951 3.2951 0 7.35982 0C11.4245 0 14.7196 3.2951 14.7196 7.35982Z" fill="#3F3F3F"/>
</svg>
